<svg width="42" height="42" viewBox="0 0 42 42" fill="none" xmlns="http://www.w3.org/2000/svg">
<circle cx="21" cy="21" r="20" fill="#F8F3FF" stroke="#0DB4CB" stroke-width="2"/>
<path d="M30.9955 30V29.9993H31V23.3977C31 20.1683 30.3048 17.6805 26.5293 17.6805C24.7142 17.6805 23.4963 18.6765 22.999 19.6208H22.9465V17.982H19.3668V29.9993H23.0942V24.0488C23.0942 22.482 23.3912 20.967 25.3315 20.967C27.2432 20.967 27.2717 22.755 27.2717 24.1493V30H30.9955Z" fill="#0DB4CB"/>
<path d="M13.297 17.9827H17.029V30H13.297V17.9827Z" fill="#0DB4CB"/>
<path d="M15.1615 12C13.9682 12 13 12.9682 13 14.1615C13 15.3547 13.9682 16.3433 15.1615 16.3433C16.3547 16.3433 17.323 15.3547 17.323 14.1615C17.3222 12.9682 16.354 12 15.1615 12Z" fill="#0DB4CB"/>
</svg>
