<?xml version="1.0" encoding="UTF-8"?>
<svg xmlns="http://www.w3.org/2000/svg" xmlns:xlink="http://www.w3.org/1999/xlink" width="42px" height="42px" viewBox="0 0 42 42" version="1.1">
<g id="surface1"><circle cx="21" cy="21" r="20" fill="#F8F3FF" stroke="#000000" stroke-width="2"/>
<path style=" stroke:none;fill-rule:nonzero;fill:rgb(0%,0%,0%);fill-opacity:1;" d="M 21 0.421875 C 9.925781 0.421875 0.949219 9.636719 0.949219 21 C 0.949219 32.363281 9.929688 41.578125 21 41.578125 C 32.074219 41.578125 41.050781 32.363281 41.050781 21 C 41.050781 9.636719 32.074219 0.421875 21 0.421875 Z M 27.019531 39.484375 C 26.050781 39.675781 25.710938 39.070312 25.710938 38.546875 C 25.710938 37.910156 25.734375 35.808594 25.734375 33.207031 C 25.734375 31.386719 25.125 30.199219 24.445312 29.59375 C 28.675781 29.113281 33.117188 27.464844 33.117188 19.984375 C 33.117188 17.859375 32.382812 16.117188 31.164062 14.753906 C 31.355469 14.261719 32.011719 12.285156 30.976562 9.601562 C 30.976562 9.601562 29.382812 9.078125 25.753906 11.601562 C 24.238281 11.167969 22.613281 10.949219 21 10.941406 C 19.382812 10.949219 17.757812 11.164062 16.246094 11.601562 C 12.617188 9.082031 11.019531 9.601562 11.019531 9.601562 C 9.988281 12.285156 10.636719 14.261719 10.835938 14.753906 C 9.621094 16.117188 8.882812 17.855469 8.882812 19.984375 C 8.882812 27.445312 13.316406 29.117188 17.535156 29.609375 C 16.992188 30.097656 16.5 30.953125 16.328125 32.214844 C 15.246094 32.710938 12.496094 33.570312 10.800781 30.59375 C 10.800781 30.59375 9.796875 28.722656 7.890625 28.585938 C 7.890625 28.585938 6.035156 28.558594 7.761719 29.769531 C 7.761719 29.769531 9.007812 30.367188 9.871094 32.617188 C 9.871094 32.617188 10.988281 36.40625 16.269531 35.230469 C 16.277344 36.855469 16.296875 38.082031 16.296875 38.542969 C 16.296875 39.058594 15.953125 39.660156 15 39.480469 C 7.445312 36.90625 2.007812 29.605469 2.007812 21 C 2.003906 10.246094 10.507812 1.527344 21 1.527344 C 31.492188 1.527344 39.996094 10.246094 39.996094 21.007812 C 39.996094 29.609375 34.558594 36.90625 27.019531 39.484375 Z M 27.019531 39.484375 "/>
</g>
</svg>
