<svg width="39" height="40" viewBox="0 0 39 40" fill="none" xmlns="http://www.w3.org/2000/svg">
<path d="M3.49438 31.8862H34.7872C36.9881 28.769 38.2816 24.9653 38.2816 20.8592C38.2816 10.288 29.712 1.71844 19.1408 1.71844C8.56961 1.71844 0 10.288 0 20.8592C0 24.9653 1.29344 28.769 3.49438 31.8862Z" fill="#8221FE"/>
<path d="M34.4241 31.0045C33.2337 28.6238 31.1445 27.9591 30.1926 27.7763C30.1926 27.7763 27.758 27.3318 25.6069 26.4572C25.5407 26.6687 25.3965 26.8563 25.1849 26.9704C23.7174 27.7616 21.738 28.4108 19.1928 28.4108C18.6745 28.4108 18.1808 28.3827 17.7089 28.333C17.7211 28.3605 17.7327 28.3877 17.7455 28.4154C17.2216 28.4816 15.5438 28.7366 13.8849 29.4483C11.227 30.5883 9.82211 32.3744 9.82211 34.6134V37.5814C12.5798 39.1217 15.7576 40 19.1408 40C25.6059 40 31.3218 36.7943 34.7872 31.8862C34.6778 31.5666 34.5573 31.2709 34.4241 31.0045Z" fill="#72AAFC"/>
<path d="M12.7661 26.4197C10.5932 27.3191 8.08899 27.7763 8.08899 27.7763C7.13703 27.9591 5.04789 28.6238 3.8575 31.0045C3.7243 31.2709 3.60383 31.5666 3.49438 31.8862C5.17203 34.2623 7.37711 36.2393 9.9393 37.6469C9.9393 36.8438 9.9393 35.8476 9.9393 34.6134C9.9393 29.2609 17.9229 28.5128 17.9229 28.5128C17.8948 28.4569 17.8688 28.402 17.8437 28.3475C15.9355 28.1663 14.397 27.6155 13.1995 26.9695C12.9758 26.8487 12.8264 26.6462 12.7661 26.4197Z" fill="#548BED"/>
<path d="M25.7234 25.7904L24.2233 23.3809C24.0122 23.0418 23.6064 22.8808 23.2191 22.9782C22.0482 23.2728 20.674 23.4952 19.1928 23.4952C19.0384 23.4952 18.8855 23.4923 18.7336 23.4876V24.7694C18.5072 24.8816 17.8176 25.2799 17.5143 26.0963C17.2644 26.7692 17.3422 27.5487 17.7455 28.4153C17.6649 28.4255 17.5569 28.4402 17.4261 28.4603C17.9832 28.5284 18.5711 28.567 19.1927 28.567C21.8222 28.567 23.867 27.8964 25.383 27.079C25.8471 26.8288 26.002 26.2379 25.7234 25.7904Z" fill="#548BED"/>
<path d="M15.1656 22.9775C14.7782 22.8799 14.3723 23.0409 14.1612 23.3801L12.6612 25.7895C12.3826 26.237 12.5374 26.8277 13.0014 27.078C14.2639 27.7591 15.8945 28.3367 17.9223 28.5115C16.5584 25.7963 18.8508 24.8441 18.8508 24.8441V23.4909C17.5001 23.4599 16.2463 23.2497 15.1656 22.9775Z" fill="#3E7FDD"/>
<path d="M26.0677 22.0795C25.5404 20.2328 25.3218 18.7912 25.2745 17.6772C24.874 19.1223 24.3506 20.4018 23.7131 21.4927C23.3453 22.1222 22.8888 22.6859 22.3585 23.1745C21.5664 27.7956 23.0476 31.2768 24.2132 33.1791C24.4588 33.58 25.1134 33.4119 25.107 32.949C25.0546 29.1179 27.4874 27.0521 26.0677 22.0795Z" fill="#45304C"/>
<path d="M19.192 3.07656C20.4205 3.07656 21.4628 3.31305 22.3402 3.67742C22.3649 3.51727 22.378 3.35312 22.378 3.18602C22.3779 1.42641 20.9515 0 19.192 0C17.4324 0 16.0059 1.42641 16.0059 3.18602C16.0059 3.35312 16.019 3.51719 16.0438 3.67742C16.9211 3.31305 17.9634 3.07656 19.192 3.07656Z" fill="#56415E"/>
<path d="M19.192 2.40156C17.9398 1.14937 19.192 0 19.192 0C17.4324 0 16.0059 1.42641 16.0059 3.18602C16.0059 3.35312 16.019 3.51719 16.0438 3.67742C16.9211 3.31305 17.9634 3.07656 19.192 3.07656V2.40156Z" fill="#45304C"/>
<path d="M15.487 4.14039C16.4701 3.6332 17.6925 3.28125 19.192 3.28125C20.6914 3.28125 21.9138 3.6332 22.8969 4.14047C23.0715 4.23055 23.24 4.32852 23.4034 4.4325C22.4167 3.19531 20.8974 2.40156 19.192 2.40156C17.4865 2.40156 15.9672 3.19523 14.9805 4.43242C15.1438 4.32844 15.3124 4.23047 15.487 4.14039Z" fill="#D3DCFB"/>
<path d="M12.9658 13.034C13.0549 12.7423 13.1769 12.4898 13.3418 12.304C13.4902 12.1367 13.5834 11.9298 13.59 11.7084C13.6286 10.415 14.1257 6.22469 18.8997 8.05477C19.0873 8.12664 19.2966 8.12664 19.4842 8.05477C24.2582 6.22469 24.7553 10.415 24.7939 11.7084C24.8005 11.9298 24.8937 12.1367 25.0421 12.304C25.207 12.4898 25.329 12.7423 25.4181 13.034V13.0339C25.66 12.8727 26.0355 12.7615 26.3749 12.7695L26.375 12.7684V9.6293C26.375 7.25047 25.0489 5.04586 22.8969 3.93563C21.9138 3.42844 20.6914 3.07656 19.192 3.07656C17.6925 3.07656 16.4701 3.42844 15.487 3.93563C13.335 5.04586 12.0089 7.25047 12.0089 9.6293V12.7684L12.009 12.7695C12.3484 12.7616 12.7239 12.8727 12.9658 13.034Z" fill="#56415E"/>
<path d="M19.192 3.07656C17.6925 3.07656 16.4701 3.42844 15.487 3.93563C13.335 5.04586 12.0089 7.25047 12.0089 9.6293V12.7684L12.009 12.7695C12.3484 12.7615 12.7239 12.8728 12.9658 13.034C13.0549 12.7423 13.1769 12.4898 13.3418 12.304C13.4902 12.1367 13.5834 11.9298 13.59 11.7084C13.6279 10.4398 14.1073 6.38516 18.6301 7.95672C18.6112 7.93203 18.593 7.90719 18.5726 7.88281C16.4505 5.35703 19.192 3.07656 19.192 3.07656Z" fill="#45304C"/>
<path d="M12.9066 16.7634C12.9066 16.7634 12.517 14.2977 12.9658 12.8293C12.5586 12.5579 11.772 12.4254 11.4182 12.7712C10.6938 13.4794 11.2246 14.5487 11.4786 15.2242C11.5566 15.4316 11.6069 15.6414 11.6296 15.8516C11.6791 16.3082 11.9266 16.9766 12.9532 16.9609C12.9377 16.8951 12.9218 16.8303 12.9066 16.7634Z" fill="#FC9460"/>
<path d="M26.9657 12.7712C26.6119 12.4254 25.8252 12.5579 25.4181 12.8293C25.8669 14.2977 25.4773 16.7634 25.4773 16.7634C25.4621 16.8303 25.4463 16.8951 25.4307 16.9609C26.4573 16.9766 26.7049 16.3083 26.7544 15.8516C26.7771 15.6414 26.8274 15.4316 26.9054 15.2242C27.1593 14.5487 27.6901 13.4794 26.9657 12.7712Z" fill="#FFAA7B"/>
<path d="M25.0804 12.0653C24.9325 11.8986 24.8511 11.7038 24.8451 11.5021C24.8222 10.7343 24.6283 8.85508 23.3259 7.98781C22.4021 7.37266 21.1034 7.37906 19.4659 8.00703C19.2892 8.07477 19.0946 8.07477 18.918 8.00703C18.7195 7.93094 18.5261 7.86437 18.3376 7.80648C17.012 8.69539 16.8141 10.6119 16.7908 11.3957C16.7846 11.6021 16.7015 11.8012 16.5501 11.9716C15.7161 12.9115 15.8988 15.6573 16.0933 16.7877C16.5242 18.6897 17.1484 20.3482 17.9483 21.7172C18.6098 22.8494 19.5499 23.775 20.6941 24.434C21.965 23.7834 23.0029 22.8105 23.7131 21.5949C24.4952 20.2566 25.1056 18.6348 25.5278 16.7713C25.7106 15.6094 25.9053 12.9949 25.0804 12.0653Z" fill="#FFC7AB"/>
<path d="M18.0128 21.595C17.2306 20.2563 16.6202 18.6346 16.1989 16.7747C16.0086 15.6693 15.8301 12.9844 16.6455 12.0653C16.7936 11.8986 16.8749 11.7039 16.8809 11.5021C16.9038 10.7343 17.0977 8.85492 18.4001 7.98773C18.4561 7.95039 18.5137 7.91555 18.5725 7.88281C17.0972 7.38234 15.9157 7.41672 15.058 7.98773C13.7555 8.855 13.5617 10.7343 13.5388 11.5021C13.5328 11.7039 13.4515 11.8986 13.3034 12.0653C12.4879 12.9843 12.6665 15.6693 12.8568 16.7747C13.2782 18.6346 13.8886 20.2563 14.6707 21.595C15.4648 22.954 16.6673 24.0109 18.1483 24.6516C18.8116 24.9385 19.5723 24.9386 20.2355 24.6516C20.4509 24.5584 20.6597 24.4554 20.8629 24.3449C19.669 23.6959 18.6914 22.7562 18.0128 21.595Z" fill="#FFAA7B"/>
<path d="M30.8695 5.73305C29.6176 6.75422 28.3573 8.39305 29.1001 10.5669C30.4257 14.4468 26.9594 19.7458 30.8541 23.6405C33.146 25.9324 35.8857 25.823 37.7527 25.345C38.0984 23.9062 38.2816 22.4041 38.2816 20.8592C38.2815 14.7077 35.3791 9.23477 30.8695 5.73305Z" fill="#8221FE"/>
<path d="M7.41203 5.73305C8.66399 6.75422 9.92422 8.39305 9.18149 10.5669C7.85586 14.4468 11.3222 19.7458 7.4275 23.6405C5.13555 25.9324 2.39586 25.823 0.528828 25.345C0.183203 23.9062 0 22.4041 0 20.8592C0 14.7077 2.9025 9.23477 7.41203 5.73305Z" fill="#8221FE"/>
<path d="M32.1188 34.927C31.7335 33.3853 30.7781 32.4911 30.0036 32.0014C29.5152 31.6927 28.8784 32.0402 28.8784 32.618V37.3406C30.0438 36.6505 31.1295 35.8402 32.1188 34.927Z" fill="#548BED"/>
<path d="M23.8977 24.8668C23.8977 26.9577 24.2426 28.9967 25.7298 29.2495C26.3136 27.2339 26.9718 25.2461 26.0677 22.0795C26.0459 22.0032 26.0254 21.9286 26.0046 21.8536C25.0381 22.3717 23.8977 23.3123 23.8977 24.8668Z" fill="#56415E"/>
</svg>
