<svg width="42" height="42" viewBox="0 0 42 42" fill="none" xmlns="http://www.w3.org/2000/svg">
<circle cx="21" cy="21" r="20" fill="#F8F3FF" stroke="#3D6AD6" stroke-width="2"/>
<path d="M18.7141 22.1625C18.6435 22.1625 17.1614 22.1629 16.4779 22.1623C16.126 22.162 16.0004 22.0356 16.0004 21.6814C16 20.7718 15.9998 19.8621 16.0004 18.9524C16.0007 18.6028 16.1334 18.4693 16.4808 18.4691C17.1644 18.4687 18.6383 18.4689 18.7141 18.4689C18.7141 18.4066 18.7139 17.0932 18.7141 16.4884C18.7146 15.5943 18.8741 14.7384 19.3284 13.9547C19.7935 13.1526 20.4703 12.6031 21.3376 12.2854C21.8932 12.0818 22.4698 12.0006 23.0593 12.0001C23.7969 11.9997 24.5344 12.0004 25.2722 12.0017C25.5892 12.0022 25.7299 12.1423 25.7305 12.4616C25.7319 13.3173 25.7319 14.173 25.7305 15.0284C25.7301 15.3511 25.5953 15.4807 25.2711 15.4843C24.6665 15.4908 24.0615 15.4867 23.4576 15.511C22.8476 15.511 22.5268 15.8089 22.5268 16.4403C22.5121 17.1081 22.5207 17.7766 22.5207 18.4687C22.5778 18.4687 24.3137 18.4684 25.1251 18.4687C25.4936 18.4687 25.6196 18.5953 25.6196 18.9659C25.6196 19.8706 25.6194 20.7756 25.6187 21.6803C25.6185 22.0455 25.5001 22.162 25.1293 22.1623C24.318 22.1627 22.5889 22.1625 22.5133 22.1625V29.4851C22.5133 29.8755 22.3904 29.9999 22.0052 29.9999C21.0661 29.9999 20.1267 30.0001 19.1875 29.9999C18.8471 29.9999 18.7144 29.8676 18.7144 29.5272C18.7141 27.1424 18.7141 22.2462 18.7141 22.1625Z" fill="#3D6AD6"/>
</svg>
