<svg width="42" height="42" viewBox="0 0 42 42" fill="none" xmlns="http://www.w3.org/2000/svg">
<circle cx="21" cy="21" r="20" fill="#F8F3FF" stroke="#FF0000" stroke-width="2"/>
<path d="M21.9468 19.8027H21.6968V20.0527V22.4203V22.6703H21.9468H27.2319C26.5816 25.7184 24.0867 27.8527 20.9998 27.8527C17.2549 27.8527 14.1468 24.7446 14.1468 20.9998C14.1468 17.2549 17.2549 14.1468 20.9998 14.1468C22.9128 14.1468 24.553 14.9655 25.7413 16.2452L25.9178 16.4353L26.1012 16.2518L27.806 14.5471L27.9827 14.3704L27.806 14.1936C26.0616 12.4492 23.7274 11.2792 20.9998 11.2792C15.6529 11.2792 11.2792 15.6529 11.2792 20.9998C11.2792 26.3467 15.6529 30.7203 20.9998 30.7203C26.3632 30.7203 30.2468 26.3295 30.2468 20.9998V20.0527V19.8027H29.9968H21.9468Z" fill="#FE1E20" stroke="#FE1E20" stroke-width="0.5"/>
</svg>
